<svg xmlns="http://www.w3.org/2000/svg" xmlns:xlink="http://www.w3.org/1999/xlink" contentStyleType="text/css" height="902px" preserveAspectRatio="none" style="width:1920px;height:902px;background:#FFFFFF;" version="1.1" viewBox="0 0 1920 902" width="1920px" zoomAndPan="magnify"><defs><filter height="1" id="bcbt54vly7fsx0" width="1" x="0" y="0"><feFlood flood-color="#A0522D" result="flood"/><feComposite in="SourceGraphic" in2="flood" operator="over"/></filter><filter height="1" id="bcbt54vly7fsx1" width="1" x="0" y="0"><feFlood flood-color="#9370DB" result="flood"/><feComposite in="SourceGraphic" in2="flood" operator="over"/></filter><filter height="1" id="bcbt54vly7fsx2" width="1" x="0" y="0"><feFlood flood-color="#FEE599" result="flood"/><feComposite in="SourceGraphic" in2="flood" operator="over"/></filter><filter height="1" id="bcbt54vly7fsx3" width="1" x="0" y="0"><feFlood flood-color="#E0FFFF" result="flood"/><feComposite in="SourceGraphic" in2="flood" operator="over"/></filter><filter height="1" id="bcbt54vly7fsx4" width="1" x="0" y="0"><feFlood flood-color="#E2EFD9" result="flood"/><feComposite in="SourceGraphic" in2="flood" operator="over"/></filter><filter height="1" id="bcbt54vly7fsx5" width="1" x="0" y="0"><feFlood flood-color="#7FFFD4" result="flood"/><feComposite in="SourceGraphic" in2="flood" operator="over"/></filter><filter height="1" id="bcbt54vly7fsx6" width="1" x="0" y="0"><feFlood flood-color="#FFC0CB" result="flood"/><feComposite in="SourceGraphic" in2="flood" operator="over"/></filter></defs><g><rect fill="#AEF2F7" height="672.5625" style="stroke:#181818;stroke-width:0.5;" width="861.5898" x="1" y="224.2656"/><text fill="#000000" font-family="Arial" font-size="12" font-weight="bold" lengthAdjust="spacing" textLength="162.8438" x="350.373" y="235.4043">Application (SWAD-001)</text><rect fill="#AEF2F7" height="672.5625" style="stroke:#181818;stroke-width:0.5;" width="344.2012" x="864.5898" y="224.2656"/><text fill="#000000" font-family="Arial" font-size="12" font-weight="bold" lengthAdjust="spacing" textLength="136.1895" x="968.5957" y="235.4043">Service (SWAD-002)</text><rect fill="#AEF2F7" height="672.5625" style="stroke:#181818;stroke-width:0.5;" width="228.8008" x="1210.791" y="224.2656"/><text fill="#000000" font-family="Arial" font-size="12" font-weight="bold" lengthAdjust="spacing" textLength="113.2793" x="1268.5518" y="235.4043">HAL (SWAD-003)</text><rect fill="#AEF2F7" height="672.5625" style="stroke:#181818;stroke-width:0.5;" width="132.3555" x="1441.5918" y="224.2656"/><text fill="#000000" font-family="Arial" font-size="12" font-weight="bold" lengthAdjust="spacing" textLength="105.1465" x="1455.1963" y="235.4043">OS (SWAD-004)</text><rect fill="#AEF2F7" height="672.5625" style="stroke:#181818;stroke-width:0.5;" width="228.8008" x="1575.9473" y="224.2656"/><text fill="#000000" font-family="Arial" font-size="12" font-weight="bold" lengthAdjust="spacing" textLength="135.3164" x="1622.6895" y="235.4043">Drivers (SWAD-005)</text><rect fill="#FFFFFF" height="391.8125" style="stroke:#181818;stroke-width:1.0;" width="10" x="223.8877" y="315.1406"/><rect fill="#FFFFFF" height="377.8125" style="stroke:#181818;stroke-width:1.0;" width="10" x="339.2881" y="329.1406"/><rect fill="#FFFFFF" height="111.9688" style="stroke:#181818;stroke-width:1.0;" width="10" x="454.6885" y="357.1094"/><rect fill="#FFFFFF" height="125.9375" style="stroke:#181818;stroke-width:1.0;" width="10" x="570.0889" y="483.0781"/><rect fill="#FFFFFF" height="69.9375" style="stroke:#181818;stroke-width:1.0;" width="10" x="685.4893" y="623.0156"/><rect fill="#FFFFFF" height="83.9688" style="stroke:#181818;stroke-width:1.0;" width="10" x="1262.4912" y="371.1094"/><rect fill="#FFFFFF" height="83.9688" style="stroke:#181818;stroke-width:1.0;" width="10" x="1377.8916" y="511.0469"/><rect fill="#FFFFFF" height="70" style="stroke:#181818;stroke-width:1.0;" width="10" x="1377.8916" y="762.8906"/><rect fill="#FFFFFF" height="27.9688" style="stroke:#181818;stroke-width:1.0;" width="10" x="1502.7695" y="650.9844"/><rect fill="#FFFFFF" height="55.9688" style="stroke:#181818;stroke-width:1.0;" width="10" x="1627.6475" y="385.1094"/><rect fill="#FFFFFF" height="55.9688" style="stroke:#181818;stroke-width:1.0;" width="10" x="1743.0479" y="525.0469"/><rect fill="#FFFFFF" height="42" style="stroke:#181818;stroke-width:1.0;" width="10" x="1743.0479" y="776.8906"/><rect fill="#FFFFFF" height="14" style="stroke:#181818;stroke-width:1.0;" width="10" x="1857.7832" y="413.0781"/><rect fill="#FFFFFF" height="14" style="stroke:#181818;stroke-width:1.0;" width="10" x="1857.7832" y="553.0156"/><rect fill="#FFFFFF" height="14" style="stroke:#181818;stroke-width:1.0;" width="10" x="1857.7832" y="790.8906"/><line style="stroke:#181818;stroke-width:0.5;stroke-dasharray:5.0,5.0;" x1="57" x2="57" y1="285.1719" y2="850.8906"/><line style="stroke:#181818;stroke-width:0.5;stroke-dasharray:5.0,5.0;" x1="228.1875" x2="228.1875" y1="285.1719" y2="850.8906"/><line style="stroke:#181818;stroke-width:0.5;stroke-dasharray:5.0,5.0;" x1="343.5879" x2="343.5879" y1="285.1719" y2="850.8906"/><line style="stroke:#181818;stroke-width:0.5;stroke-dasharray:5.0,5.0;" x1="458.9883" x2="458.9883" y1="285.1719" y2="850.8906"/><line style="stroke:#181818;stroke-width:0.5;stroke-dasharray:5.0,5.0;" x1="574.3887" x2="574.3887" y1="285.1719" y2="850.8906"/><line style="stroke:#181818;stroke-width:0.5;stroke-dasharray:5.0,5.0;" x1="689.7891" x2="689.7891" y1="285.1719" y2="850.8906"/><line style="stroke:#181818;stroke-width:0.5;stroke-dasharray:5.0,5.0;" x1="805.1895" x2="805.1895" y1="285.1719" y2="850.8906"/><line style="stroke:#181818;stroke-width:0.5;stroke-dasharray:5.0,5.0;" x1="920.5898" x2="920.5898" y1="285.1719" y2="850.8906"/><line style="stroke:#181818;stroke-width:0.5;stroke-dasharray:5.0,5.0;" x1="1035.9902" x2="1035.9902" y1="285.1719" y2="850.8906"/><line style="stroke:#181818;stroke-width:0.5;stroke-dasharray:5.0,5.0;" x1="1151.3906" x2="1151.3906" y1="285.1719" y2="850.8906"/><line style="stroke:#181818;stroke-width:0.5;stroke-dasharray:5.0,5.0;" x1="1266.791" x2="1266.791" y1="285.1719" y2="850.8906"/><line style="stroke:#181818;stroke-width:0.5;stroke-dasharray:5.0,5.0;" x1="1382.1914" x2="1382.1914" y1="285.1719" y2="850.8906"/><line style="stroke:#181818;stroke-width:0.5;stroke-dasharray:5.0,5.0;" x1="1507.5918" x2="1507.5918" y1="285.1719" y2="850.8906"/><line style="stroke:#181818;stroke-width:0.5;stroke-dasharray:5.0,5.0;" x1="1631.9473" x2="1631.9473" y1="285.1719" y2="850.8906"/><line style="stroke:#181818;stroke-width:0.5;stroke-dasharray:5.0,5.0;" x1="1747.3477" x2="1747.3477" y1="285.1719" y2="850.8906"/><line style="stroke:#181818;stroke-width:0.5;stroke-dasharray:5.0,5.0;" x1="1862.748" x2="1862.748" y1="285.1719" y2="850.8906"/><rect fill="#E2EFD9" height="41.9375" rx="2.5" ry="2.5" style="stroke:#181818;stroke-width:0.5;" width="105.4004" x="5" y="242.2344"/><text fill="#000000" font-family="Arial" font-size="12" lengthAdjust="spacing" textLength="91.4004" x="12" y="260.373">SWAD-001-001</text><text fill="#000000" font-family="Arial" font-size="12" lengthAdjust="spacing" textLength="28.6465" x="43.377" y="274.3418">Main</text><rect fill="#E2EFD9" height="41.9375" rx="2.5" ry="2.5" style="stroke:#181818;stroke-width:0.5;" width="105.4004" x="5" y="849.8906"/><text fill="#000000" font-family="Arial" font-size="12" lengthAdjust="spacing" textLength="91.4004" x="12" y="868.0293">SWAD-001-001</text><text fill="#000000" font-family="Arial" font-size="12" lengthAdjust="spacing" textLength="28.6465" x="43.377" y="881.998">Main</text><rect fill="#E2EFD9" height="41.9375" rx="2.5" ry="2.5" style="stroke:#181818;stroke-width:0.5;" width="105.4004" x="176.1875" y="242.2344"/><text fill="#000000" font-family="Arial" font-size="12" lengthAdjust="spacing" textLength="91.4004" x="183.1875" y="260.373">SWAD-001-004</text><text fill="#000000" font-family="Arial" font-size="12" lengthAdjust="spacing" textLength="42.75" x="207.5127" y="274.3418">SmApp</text><rect fill="#E2EFD9" height="41.9375" rx="2.5" ry="2.5" style="stroke:#181818;stroke-width:0.5;" width="105.4004" x="176.1875" y="849.8906"/><text fill="#000000" font-family="Arial" font-size="12" lengthAdjust="spacing" textLength="91.4004" x="183.1875" y="868.0293">SWAD-001-004</text><text fill="#000000" font-family="Arial" font-size="12" lengthAdjust="spacing" textLength="42.75" x="207.5127" y="881.998">SmApp</text><rect fill="#E2EFD9" height="41.9375" rx="2.5" ry="2.5" style="stroke:#181818;stroke-width:0.5;" width="105.4004" x="291.5879" y="242.2344"/><text fill="#000000" font-family="Arial" font-size="12" lengthAdjust="spacing" textLength="91.4004" x="298.5879" y="260.373">SWAD-001-002</text><text fill="#000000" font-family="Arial" font-size="12" lengthAdjust="spacing" textLength="42.627" x="322.9746" y="274.3418">InitApp</text><rect fill="#E2EFD9" height="41.9375" rx="2.5" ry="2.5" style="stroke:#181818;stroke-width:0.5;" width="105.4004" x="291.5879" y="849.8906"/><text fill="#000000" font-family="Arial" font-size="12" lengthAdjust="spacing" textLength="91.4004" x="298.5879" y="868.0293">SWAD-001-002</text><text fill="#000000" font-family="Arial" font-size="12" lengthAdjust="spacing" textLength="42.627" x="322.9746" y="881.998">InitApp</text><rect fill="#E2EFD9" height="41.9375" rx="2.5" ry="2.5" style="stroke:#181818;stroke-width:0.5;" width="105.4004" x="406.9883" y="242.2344"/><text fill="#000000" font-family="Arial" font-size="12" lengthAdjust="spacing" textLength="91.4004" x="413.9883" y="260.373">SWAD-001-007</text><text fill="#000000" font-family="Arial" font-size="12" lengthAdjust="spacing" textLength="42.1055" x="438.6357" y="274.3418">ClkApp</text><rect fill="#E2EFD9" height="41.9375" rx="2.5" ry="2.5" style="stroke:#181818;stroke-width:0.5;" width="105.4004" x="406.9883" y="849.8906"/><text fill="#000000" font-family="Arial" font-size="12" lengthAdjust="spacing" textLength="91.4004" x="413.9883" y="868.0293">SWAD-001-007</text><text fill="#000000" font-family="Arial" font-size="12" lengthAdjust="spacing" textLength="42.1055" x="438.6357" y="881.998">ClkApp</text><rect fill="#E2EFD9" height="41.9375" rx="2.5" ry="2.5" style="stroke:#181818;stroke-width:0.5;" width="105.4004" x="522.3887" y="242.2344"/><text fill="#000000" font-family="Arial" font-size="12" lengthAdjust="spacing" textLength="91.4004" x="529.3887" y="260.373">SWAD-001-003</text><text fill="#000000" font-family="Arial" font-size="12" lengthAdjust="spacing" textLength="52.5" x="548.8389" y="274.3418">PinIoApp</text><rect fill="#E2EFD9" height="41.9375" rx="2.5" ry="2.5" style="stroke:#181818;stroke-width:0.5;" width="105.4004" x="522.3887" y="849.8906"/><text fill="#000000" font-family="Arial" font-size="12" lengthAdjust="spacing" textLength="91.4004" x="529.3887" y="868.0293">SWAD-001-003</text><text fill="#000000" font-family="Arial" font-size="12" lengthAdjust="spacing" textLength="52.5" x="548.8389" y="881.998">PinIoApp</text><rect fill="#E2EFD9" height="41.9375" rx="2.5" ry="2.5" style="stroke:#181818;stroke-width:0.5;" width="105.4004" x="637.7891" y="242.2344"/><text fill="#000000" font-family="Arial" font-size="12" lengthAdjust="spacing" textLength="91.4004" x="644.7891" y="260.373">SWAD-001-005</text><text fill="#000000" font-family="Arial" font-size="12" lengthAdjust="spacing" textLength="50.0801" x="665.4492" y="274.3418">RtosApp</text><rect fill="#E2EFD9" height="41.9375" rx="2.5" ry="2.5" style="stroke:#181818;stroke-width:0.5;" width="105.4004" x="637.7891" y="849.8906"/><text fill="#000000" font-family="Arial" font-size="12" lengthAdjust="spacing" textLength="91.4004" x="644.7891" y="868.0293">SWAD-001-005</text><text fill="#000000" font-family="Arial" font-size="12" lengthAdjust="spacing" textLength="50.0801" x="665.4492" y="881.998">RtosApp</text><rect fill="#E2EFD9" height="41.9375" rx="2.5" ry="2.5" style="stroke:#181818;stroke-width:0.5;" width="105.4004" x="753.1895" y="242.2344"/><text fill="#000000" font-family="Arial" font-size="12" lengthAdjust="spacing" textLength="91.4004" x="760.1895" y="260.373">SWAD-001-006</text><text fill="#000000" font-family="Arial" font-size="12" lengthAdjust="spacing" textLength="51.3281" x="780.2256" y="274.3418">TaskApp</text><rect fill="#E2EFD9" height="41.9375" rx="2.5" ry="2.5" style="stroke:#181818;stroke-width:0.5;" width="105.4004" x="753.1895" y="849.8906"/><text fill="#000000" font-family="Arial" font-size="12" lengthAdjust="spacing" textLength="91.4004" x="760.1895" y="868.0293">SWAD-001-006</text><text fill="#000000" font-family="Arial" font-size="12" lengthAdjust="spacing" textLength="51.3281" x="780.2256" y="881.998">TaskApp</text><rect fill="#E2EFD9" height="41.9375" rx="2.5" ry="2.5" style="stroke:#181818;stroke-width:0.5;" width="105.4004" x="868.5898" y="242.2344"/><text fill="#000000" font-family="Arial" font-size="12" lengthAdjust="spacing" textLength="91.4004" x="875.5898" y="260.373">SWAD-002-001</text><text fill="#000000" font-family="Arial" font-size="12" lengthAdjust="spacing" textLength="25.6406" x="908.4697" y="274.3418">UDS</text><rect fill="#E2EFD9" height="41.9375" rx="2.5" ry="2.5" style="stroke:#181818;stroke-width:0.5;" width="105.4004" x="868.5898" y="849.8906"/><text fill="#000000" font-family="Arial" font-size="12" lengthAdjust="spacing" textLength="91.4004" x="875.5898" y="868.0293">SWAD-002-001</text><text fill="#000000" font-family="Arial" font-size="12" lengthAdjust="spacing" textLength="25.6406" x="908.4697" y="881.998">UDS</text><rect fill="#E2EFD9" height="41.9375" rx="2.5" ry="2.5" style="stroke:#181818;stroke-width:0.5;" width="105.4004" x="983.9902" y="242.2344"/><text fill="#000000" font-family="Arial" font-size="12" lengthAdjust="spacing" textLength="91.4004" x="990.9902" y="260.373">SWAD-002-002</text><text fill="#000000" font-family="Arial" font-size="12" lengthAdjust="spacing" textLength="29.4785" x="1021.9512" y="274.3418">FuSa</text><rect fill="#E2EFD9" height="41.9375" rx="2.5" ry="2.5" style="stroke:#181818;stroke-width:0.5;" width="105.4004" x="983.9902" y="849.8906"/><text fill="#000000" font-family="Arial" font-size="12" lengthAdjust="spacing" textLength="91.4004" x="990.9902" y="868.0293">SWAD-002-002</text><text fill="#000000" font-family="Arial" font-size="12" lengthAdjust="spacing" textLength="29.4785" x="1021.9512" y="881.998">FuSa</text><rect fill="#E2EFD9" height="41.9375" rx="2.5" ry="2.5" style="stroke:#181818;stroke-width:0.5;" width="105.4004" x="1099.3906" y="242.2344"/><text fill="#000000" font-family="Arial" font-size="12" lengthAdjust="spacing" textLength="91.4004" x="1106.3906" y="260.373">SWAD-002-003</text><text fill="#000000" font-family="Arial" font-size="12" lengthAdjust="spacing" textLength="49.2773" x="1127.4521" y="274.3418">Security</text><rect fill="#E2EFD9" height="41.9375" rx="2.5" ry="2.5" style="stroke:#181818;stroke-width:0.5;" width="105.4004" x="1099.3906" y="849.8906"/><text fill="#000000" font-family="Arial" font-size="12" lengthAdjust="spacing" textLength="91.4004" x="1106.3906" y="868.0293">SWAD-002-003</text><text fill="#000000" font-family="Arial" font-size="12" lengthAdjust="spacing" textLength="49.2773" x="1127.4521" y="881.998">Security</text><rect fill="#E2EFD9" height="41.9375" rx="2.5" ry="2.5" style="stroke:#181818;stroke-width:0.5;" width="105.4004" x="1214.791" y="242.2344"/><text fill="#000000" font-family="Arial" font-size="12" lengthAdjust="spacing" textLength="91.4004" x="1221.791" y="260.373">SWAD-003-001</text><text fill="#000000" font-family="Arial" font-size="12" lengthAdjust="spacing" textLength="38.373" x="1248.3047" y="274.3418">ClkHal</text><rect fill="#E2EFD9" height="41.9375" rx="2.5" ry="2.5" style="stroke:#181818;stroke-width:0.5;" width="105.4004" x="1214.791" y="849.8906"/><text fill="#000000" font-family="Arial" font-size="12" lengthAdjust="spacing" textLength="91.4004" x="1221.791" y="868.0293">SWAD-003-001</text><text fill="#000000" font-family="Arial" font-size="12" lengthAdjust="spacing" textLength="38.373" x="1248.3047" y="881.998">ClkHal</text><rect fill="#E2EFD9" height="41.9375" rx="2.5" ry="2.5" style="stroke:#181818;stroke-width:0.5;" width="105.4004" x="1330.1914" y="242.2344"/><text fill="#000000" font-family="Arial" font-size="12" lengthAdjust="spacing" textLength="91.4004" x="1337.1914" y="260.373">SWAD-003-002</text><text fill="#000000" font-family="Arial" font-size="12" lengthAdjust="spacing" textLength="48.7676" x="1358.5078" y="274.3418">PinIoHal</text><rect fill="#E2EFD9" height="41.9375" rx="2.5" ry="2.5" style="stroke:#181818;stroke-width:0.5;" width="105.4004" x="1330.1914" y="849.8906"/><text fill="#000000" font-family="Arial" font-size="12" lengthAdjust="spacing" textLength="91.4004" x="1337.1914" y="868.0293">SWAD-003-002</text><text fill="#000000" font-family="Arial" font-size="12" lengthAdjust="spacing" textLength="48.7676" x="1358.5078" y="881.998">PinIoHal</text><rect fill="#E2EFD9" height="27.9688" rx="2.5" ry="2.5" style="stroke:#181818;stroke-width:0.5;" width="124.3555" x="1445.5918" y="256.2031"/><text fill="#000000" font-family="Arial" font-size="12" lengthAdjust="spacing" textLength="110.3555" x="1452.5918" y="274.3418">freeRTOS Modules</text><rect fill="#E2EFD9" height="27.9688" rx="2.5" ry="2.5" style="stroke:#181818;stroke-width:0.5;" width="124.3555" x="1445.5918" y="849.8906"/><text fill="#000000" font-family="Arial" font-size="12" lengthAdjust="spacing" textLength="110.3555" x="1452.5918" y="868.0293">freeRTOS Modules</text><rect fill="#E2EFD9" height="41.9375" rx="2.5" ry="2.5" style="stroke:#181818;stroke-width:0.5;" width="105.4004" x="1579.9473" y="242.2344"/><text fill="#000000" font-family="Arial" font-size="12" lengthAdjust="spacing" textLength="91.4004" x="1586.9473" y="260.373">SWAD-005-001</text><text fill="#000000" font-family="Arial" font-size="12" lengthAdjust="spacing" textLength="39.9375" x="1612.6787" y="274.3418">ClkDrv</text><rect fill="#E2EFD9" height="41.9375" rx="2.5" ry="2.5" style="stroke:#181818;stroke-width:0.5;" width="105.4004" x="1579.9473" y="849.8906"/><text fill="#000000" font-family="Arial" font-size="12" lengthAdjust="spacing" textLength="91.4004" x="1586.9473" y="868.0293">SWAD-005-001</text><text fill="#000000" font-family="Arial" font-size="12" lengthAdjust="spacing" textLength="39.9375" x="1612.6787" y="881.998">ClkDrv</text><rect fill="#E2EFD9" height="41.9375" rx="2.5" ry="2.5" style="stroke:#181818;stroke-width:0.5;" width="105.4004" x="1695.3477" y="242.2344"/><text fill="#000000" font-family="Arial" font-size="12" lengthAdjust="spacing" textLength="91.4004" x="1702.3477" y="260.373">SWAD-005-002</text><text fill="#000000" font-family="Arial" font-size="12" lengthAdjust="spacing" textLength="50.332" x="1722.8818" y="274.3418">PinIoDrv</text><rect fill="#E2EFD9" height="41.9375" rx="2.5" ry="2.5" style="stroke:#181818;stroke-width:0.5;" width="105.4004" x="1695.3477" y="849.8906"/><text fill="#000000" font-family="Arial" font-size="12" lengthAdjust="spacing" textLength="91.4004" x="1702.3477" y="868.0293">SWAD-005-002</text><text fill="#000000" font-family="Arial" font-size="12" lengthAdjust="spacing" textLength="50.332" x="1722.8818" y="881.998">PinIoDrv</text><rect fill="#A0522D" height="27.9688" rx="2.5" ry="2.5" style="stroke:#181818;stroke-width:0.5;" width="104.0703" x="1810.748" y="256.2031"/><text fill="#000000" font-family="Arial" font-size="12" lengthAdjust="spacing" textLength="90.0703" x="1817.748" y="274.3418">Microcontroller</text><rect fill="#A0522D" height="27.9688" rx="2.5" ry="2.5" style="stroke:#181818;stroke-width:0.5;" width="104.0703" x="1810.748" y="849.8906"/><text fill="#000000" font-family="Arial" font-size="12" lengthAdjust="spacing" textLength="90.0703" x="1817.748" y="868.0293">Microcontroller</text><rect fill="#FFFFFF" height="391.8125" style="stroke:#181818;stroke-width:1.0;" width="10" x="223.8877" y="315.1406"/><rect fill="#FFFFFF" height="377.8125" style="stroke:#181818;stroke-width:1.0;" width="10" x="339.2881" y="329.1406"/><rect fill="#FFFFFF" height="111.9688" style="stroke:#181818;stroke-width:1.0;" width="10" x="454.6885" y="357.1094"/><rect fill="#FFFFFF" height="125.9375" style="stroke:#181818;stroke-width:1.0;" width="10" x="570.0889" y="483.0781"/><rect fill="#FFFFFF" height="69.9375" style="stroke:#181818;stroke-width:1.0;" width="10" x="685.4893" y="623.0156"/><rect fill="#FFFFFF" height="83.9688" style="stroke:#181818;stroke-width:1.0;" width="10" x="1262.4912" y="371.1094"/><rect fill="#FFFFFF" height="83.9688" style="stroke:#181818;stroke-width:1.0;" width="10" x="1377.8916" y="511.0469"/><rect fill="#FFFFFF" height="70" style="stroke:#181818;stroke-width:1.0;" width="10" x="1377.8916" y="762.8906"/><rect fill="#FFFFFF" height="27.9688" style="stroke:#181818;stroke-width:1.0;" width="10" x="1502.7695" y="650.9844"/><rect fill="#FFFFFF" height="55.9688" style="stroke:#181818;stroke-width:1.0;" width="10" x="1627.6475" y="385.1094"/><rect fill="#FFFFFF" height="55.9688" style="stroke:#181818;stroke-width:1.0;" width="10" x="1743.0479" y="525.0469"/><rect fill="#FFFFFF" height="42" style="stroke:#181818;stroke-width:1.0;" width="10" x="1743.0479" y="776.8906"/><rect fill="#FFFFFF" height="14" style="stroke:#181818;stroke-width:1.0;" width="10" x="1857.7832" y="413.0781"/><rect fill="#FFFFFF" height="14" style="stroke:#181818;stroke-width:1.0;" width="10" x="1857.7832" y="553.0156"/><rect fill="#FFFFFF" height="14" style="stroke:#181818;stroke-width:1.0;" width="10" x="1857.7832" y="790.8906"/><polygon fill="#181818" points="211.8877,311.1406,221.8877,315.1406,211.8877,319.1406,215.8877,315.1406" style="stroke:#181818;stroke-width:1.0;"/><line style="stroke:#181818;stroke-width:1.0;" x1="57.7002" x2="217.8877" y1="315.1406" y2="315.1406"/><text fill="#000000" font-family="Arial" font-size="12" lengthAdjust="spacing" textLength="147.1875" x="64.7002" y="310.3105">Change to SM_INIT state</text><polygon fill="#181818" points="327.2881,325.1406,337.2881,329.1406,327.2881,333.1406,331.2881,329.1406" style="stroke:#181818;stroke-width:1.0;"/><line style="stroke:#181818;stroke-width:1.0;" x1="233.8877" x2="333.2881" y1="329.1406" y2="329.1406"/><polygon fill="#181818" points="442.6885,353.1094,452.6885,357.1094,442.6885,361.1094,446.6885,357.1094" style="stroke:#181818;stroke-width:1.0;"/><line style="stroke:#181818;stroke-width:1.0;" x1="349.2881" x2="448.6885" y1="357.1094" y2="357.1094"/><text fill="#000000" font-family="Arial" font-size="12" lengthAdjust="spacing" textLength="47.9121" x="356.2881" y="352.2793">Init Clks</text><polygon fill="#181818" points="1250.4912,367.1094,1260.4912,371.1094,1250.4912,375.1094,1254.4912,371.1094" style="stroke:#181818;stroke-width:1.0;"/><line style="stroke:#181818;stroke-width:1.0;" x1="464.6885" x2="1256.4912" y1="371.1094" y2="371.1094"/><polygon fill="#181818" points="1615.6475,381.1094,1625.6475,385.1094,1615.6475,389.1094,1619.6475,385.1094" style="stroke:#181818;stroke-width:1.0;"/><line style="stroke:#181818;stroke-width:1.0;" x1="1272.4912" x2="1621.6475" y1="385.1094" y2="385.1094"/><polygon fill="#181818" points="1845.7832,409.0781,1855.7832,413.0781,1845.7832,417.0781,1849.7832,413.0781" style="stroke:#181818;stroke-width:1.0;"/><line style="stroke:#181818;stroke-width:1.0;" x1="1637.6475" x2="1851.7832" y1="413.0781" y2="413.0781"/><text fill="#000000" font-family="Arial" font-size="12" lengthAdjust="spacing" textLength="125.6895" x="1644.6475" y="408.248">Enable clock sources</text><polygon fill="#181818" points="1648.6475,423.0781,1638.6475,427.0781,1648.6475,431.0781,1644.6475,427.0781" style="stroke:#181818;stroke-width:1.0;"/><line style="stroke:#181818;stroke-width:1.0;stroke-dasharray:2.0,2.0;" x1="1642.6475" x2="1861.7832" y1="427.0781" y2="427.0781"/><polygon fill="#181818" points="1283.4912,437.0781,1273.4912,441.0781,1283.4912,445.0781,1279.4912,441.0781" style="stroke:#181818;stroke-width:1.0;"/><line style="stroke:#181818;stroke-width:1.0;stroke-dasharray:2.0,2.0;" x1="1277.4912" x2="1631.6475" y1="441.0781" y2="441.0781"/><polygon fill="#181818" points="475.6885,451.0781,465.6885,455.0781,475.6885,459.0781,471.6885,455.0781" style="stroke:#181818;stroke-width:1.0;"/><line style="stroke:#181818;stroke-width:1.0;stroke-dasharray:2.0,2.0;" x1="469.6885" x2="1266.4912" y1="455.0781" y2="455.0781"/><polygon fill="#181818" points="360.2881,465.0781,350.2881,469.0781,360.2881,473.0781,356.2881,469.0781" style="stroke:#181818;stroke-width:1.0;"/><line style="stroke:#181818;stroke-width:1.0;stroke-dasharray:2.0,2.0;" x1="354.2881" x2="458.6885" y1="469.0781" y2="469.0781"/><polygon fill="#181818" points="558.0889,479.0781,568.0889,483.0781,558.0889,487.0781,562.0889,483.0781" style="stroke:#181818;stroke-width:1.0;"/><line style="stroke:#181818;stroke-width:1.0;stroke-dasharray:2.0,2.0;" x1="349.2881" x2="564.0889" y1="483.0781" y2="483.0781"/><polygon fill="#181818" points="1365.8916,507.0469,1375.8916,511.0469,1365.8916,515.0469,1369.8916,511.0469" style="stroke:#181818;stroke-width:1.0;"/><line style="stroke:#181818;stroke-width:1.0;" x1="580.0889" x2="1371.8916" y1="511.0469" y2="511.0469"/><text fill="#000000" font-family="Arial" font-size="12" lengthAdjust="spacing" textLength="60.4102" x="587.0889" y="506.2168">Init PinIOs</text><polygon fill="#181818" points="1731.0479,521.0469,1741.0479,525.0469,1731.0479,529.0469,1735.0479,525.0469" style="stroke:#181818;stroke-width:1.0;"/><line style="stroke:#181818;stroke-width:1.0;" x1="1387.8916" x2="1737.0479" y1="525.0469" y2="525.0469"/><polygon fill="#181818" points="1845.7832,549.0156,1855.7832,553.0156,1845.7832,557.0156,1849.7832,553.0156" style="stroke:#181818;stroke-width:1.0;"/><line style="stroke:#181818;stroke-width:1.0;" x1="1753.0479" x2="1851.7832" y1="553.0156" y2="553.0156"/><text fill="#000000" font-family="Arial" font-size="12" lengthAdjust="spacing" textLength="71.5781" x="1760.0479" y="548.1855">Drive GPIOs</text><polygon fill="#181818" points="1764.0479,563.0156,1754.0479,567.0156,1764.0479,571.0156,1760.0479,567.0156" style="stroke:#181818;stroke-width:1.0;"/><line style="stroke:#181818;stroke-width:1.0;stroke-dasharray:2.0,2.0;" x1="1758.0479" x2="1861.7832" y1="567.0156" y2="567.0156"/><polygon fill="#181818" points="1398.8916,577.0156,1388.8916,581.0156,1398.8916,585.0156,1394.8916,581.0156" style="stroke:#181818;stroke-width:1.0;"/><line style="stroke:#181818;stroke-width:1.0;stroke-dasharray:2.0,2.0;" x1="1392.8916" x2="1747.0479" y1="581.0156" y2="581.0156"/><polygon fill="#181818" points="591.0889,591.0156,581.0889,595.0156,591.0889,599.0156,587.0889,595.0156" style="stroke:#181818;stroke-width:1.0;"/><line style="stroke:#181818;stroke-width:1.0;stroke-dasharray:2.0,2.0;" x1="585.0889" x2="1381.8916" y1="595.0156" y2="595.0156"/><polygon fill="#181818" points="360.2881,605.0156,350.2881,609.0156,360.2881,613.0156,356.2881,609.0156" style="stroke:#181818;stroke-width:1.0;"/><line style="stroke:#181818;stroke-width:1.0;stroke-dasharray:2.0,2.0;" x1="354.2881" x2="574.0889" y1="609.0156" y2="609.0156"/><polygon fill="#181818" points="673.4893,619.0156,683.4893,623.0156,673.4893,627.0156,677.4893,623.0156" style="stroke:#181818;stroke-width:1.0;"/><line style="stroke:#181818;stroke-width:1.0;" x1="349.2881" x2="679.4893" y1="623.0156" y2="623.0156"/><polygon fill="#181818" points="1490.7695,646.9844,1500.7695,650.9844,1490.7695,654.9844,1494.7695,650.9844" style="stroke:#181818;stroke-width:1.0;"/><line style="stroke:#181818;stroke-width:1.0;" x1="695.4893" x2="1496.7695" y1="650.9844" y2="650.9844"/><text fill="#000000" font-family="Arial" font-size="12" lengthAdjust="spacing" textLength="74.6719" x="702.4893" y="646.1543">Tasks config</text><polygon fill="#181818" points="706.4893,674.9531,696.4893,678.9531,706.4893,682.9531,702.4893,678.9531" style="stroke:#181818;stroke-width:1.0;"/><line style="stroke:#181818;stroke-width:1.0;stroke-dasharray:2.0,2.0;" x1="700.4893" x2="1506.7695" y1="678.9531" y2="678.9531"/><text fill="#000000" font-family="Arial" font-size="12" lengthAdjust="spacing" textLength="86.3906" x="712.4893" y="674.123">Initialize finish</text><polygon fill="#181818" points="360.2881,688.9531,350.2881,692.9531,360.2881,696.9531,356.2881,692.9531" style="stroke:#181818;stroke-width:1.0;"/><line style="stroke:#181818;stroke-width:1.0;stroke-dasharray:2.0,2.0;" x1="354.2881" x2="689.4893" y1="692.9531" y2="692.9531"/><polygon fill="#181818" points="239.8877,702.9531,229.8877,706.9531,239.8877,710.9531,235.8877,706.9531" style="stroke:#181818;stroke-width:1.0;"/><line style="stroke:#181818;stroke-width:1.0;stroke-dasharray:2.0,2.0;" x1="233.8877" x2="343.2881" y1="706.9531" y2="706.9531"/><polygon fill="#181818" points="793.8896,730.9219,803.8896,734.9219,793.8896,738.9219,797.8896,734.9219" style="stroke:#181818;stroke-width:1.0;"/><line style="stroke:#181818;stroke-width:1.0;" x1="228.8877" x2="799.8896" y1="734.9219" y2="734.9219"/><text fill="#000000" font-family="Arial" font-size="12" lengthAdjust="spacing" textLength="154.8281" x="235.8877" y="730.0918">Change to SM_TASK state</text><polygon fill="#181818" points="1365.8916,758.8906,1375.8916,762.8906,1365.8916,766.8906,1369.8916,762.8906" style="stroke:#181818;stroke-width:1.0;"/><line style="stroke:#181818;stroke-width:1.0;" x1="805.8896" x2="1371.8916" y1="762.8906" y2="762.8906"/><text fill="#000000" font-family="Arial" font-size="12" lengthAdjust="spacing" textLength="134.8008" x="812.8896" y="758.0605">GPIO sensing every 1s</text><polygon fill="#181818" points="1731.0479,772.8906,1741.0479,776.8906,1731.0479,780.8906,1735.0479,776.8906" style="stroke:#181818;stroke-width:1.0;"/><line style="stroke:#181818;stroke-width:1.0;" x1="1387.8916" x2="1737.0479" y1="776.8906" y2="776.8906"/><polygon fill="#181818" points="1845.7832,786.8906,1855.7832,790.8906,1845.7832,794.8906,1849.7832,790.8906" style="stroke:#181818;stroke-width:1.0;"/><line style="stroke:#181818;stroke-width:1.0;" x1="1753.0479" x2="1851.7832" y1="790.8906" y2="790.8906"/><polygon fill="#181818" points="1764.0479,800.8906,1754.0479,804.8906,1764.0479,808.8906,1760.0479,804.8906" style="stroke:#181818;stroke-width:1.0;"/><line style="stroke:#181818;stroke-width:1.0;stroke-dasharray:2.0,2.0;" x1="1758.0479" x2="1861.7832" y1="804.8906" y2="804.8906"/><polygon fill="#181818" points="1398.8916,814.8906,1388.8916,818.8906,1398.8916,822.8906,1394.8916,818.8906" style="stroke:#181818;stroke-width:1.0;"/><line style="stroke:#181818;stroke-width:1.0;stroke-dasharray:2.0,2.0;" x1="1392.8916" x2="1747.0479" y1="818.8906" y2="818.8906"/><polygon fill="#181818" points="816.8896,828.8906,806.8896,832.8906,816.8896,836.8906,812.8896,832.8906" style="stroke:#181818;stroke-width:1.0;"/><line style="stroke:#181818;stroke-width:1.0;stroke-dasharray:2.0,2.0;" x1="810.8896" x2="1381.8916" y1="832.8906" y2="832.8906"/><rect fill="#DDDDDD" height="193.2656" id="_legend" rx="7.5" ry="7.5" style="stroke:#000000;stroke-width:1.0;" width="304.5537" x="807.1323" y="17"/><text fill="#000000" font-family="Arial" font-size="14" font-weight="bold" lengthAdjust="spacing" textLength="72.9326" x="851.1245" y="36.9951">Elements</text><text fill="#000000" font-family="Arial" font-size="14" font-weight="bold" lengthAdjust="spacing" textLength="49.5469" x="998.3569" y="36.9951">Colors</text><text fill="#000000" font-family="Arial" font-size="14" lengthAdjust="spacing" textLength="105.082" x="816.5825" y="53.292">Microcontroller</text><text fill="#000000" filter="url(#bcbt54vly7fsx0)" font-family="Arial" font-size="14" lengthAdjust="spacing" textLength="160.207" x="944.7427" y="53.292">&#160;&#160;&#160;&#160;&#160;&#160;&#160;&#160;&#160;&#160;&#160;&#160;&#160;&#160;&#160;&#160;&#160;&#160;&#160;&#160;&#160;&#160;&#160;&#160;&#160;&#160;&#160;&#160;&#160;&#160;&#160;&#160;&#160;&#160;&#160;&#160;</text><text fill="#000000" font-family="Arial" font-size="14" lengthAdjust="spacing" textLength="52.2061" x="816.5825" y="69.5889">System</text><text fill="#000000" filter="url(#bcbt54vly7fsx1)" font-family="Arial" font-size="14" lengthAdjust="spacing" textLength="160.207" x="944.7427" y="69.5889">&#160;&#160;&#160;&#160;&#160;&#160;&#160;&#160;&#160;&#160;&#160;&#160;&#160;&#160;&#160;&#160;&#160;&#160;&#160;&#160;&#160;&#160;&#160;&#160;&#160;&#160;&#160;&#160;&#160;&#160;&#160;&#160;&#160;&#160;&#160;&#160;</text><text fill="#000000" font-family="Arial" font-size="14" lengthAdjust="spacing" textLength="39.0332" x="816.5825" y="85.8857">Layer</text><text fill="#000000" filter="url(#bcbt54vly7fsx2)" font-family="Arial" font-size="14" lengthAdjust="spacing" textLength="160.207" x="944.7427" y="85.8857">&#160;&#160;&#160;&#160;&#160;&#160;&#160;&#160;&#160;&#160;&#160;&#160;&#160;&#160;&#160;&#160;&#160;&#160;&#160;&#160;&#160;&#160;&#160;&#160;&#160;&#160;&#160;&#160;&#160;&#160;&#160;&#160;&#160;&#160;&#160;&#160;</text><text fill="#000000" font-family="Arial" font-size="14" lengthAdjust="spacing" textLength="81.2793" x="816.5825" y="102.1826">Component</text><text fill="#000000" filter="url(#bcbt54vly7fsx3)" font-family="Arial" font-size="14" lengthAdjust="spacing" textLength="160.207" x="944.7427" y="102.1826">&#160;&#160;&#160;&#160;&#160;&#160;&#160;&#160;&#160;&#160;&#160;&#160;&#160;&#160;&#160;&#160;&#160;&#160;&#160;&#160;&#160;&#160;&#160;&#160;&#160;&#160;&#160;&#160;&#160;&#160;&#160;&#160;&#160;&#160;&#160;&#160;</text><text fill="#000000" font-family="Arial" font-size="14" lengthAdjust="spacing" textLength="50.9072" x="816.5825" y="118.4795">Module</text><text fill="#000000" filter="url(#bcbt54vly7fsx4)" font-family="Arial" font-size="14" lengthAdjust="spacing" textLength="160.207" x="944.7427" y="118.4795">&#160;&#160;&#160;&#160;&#160;&#160;&#160;&#160;&#160;&#160;&#160;&#160;&#160;&#160;&#160;&#160;&#160;&#160;&#160;&#160;&#160;&#160;&#160;&#160;&#160;&#160;&#160;&#160;&#160;&#160;&#160;&#160;&#160;&#160;&#160;&#160;</text><text fill="#000000" font-family="Arial" font-size="14" lengthAdjust="spacing" textLength="28.499" x="816.5825" y="134.7764">Uint</text><text fill="#000000" filter="url(#bcbt54vly7fsx5)" font-family="Arial" font-size="14" lengthAdjust="spacing" textLength="160.207" x="944.7427" y="134.7764">&#160;&#160;&#160;&#160;&#160;&#160;&#160;&#160;&#160;&#160;&#160;&#160;&#160;&#160;&#160;&#160;&#160;&#160;&#160;&#160;&#160;&#160;&#160;&#160;&#160;&#160;&#160;&#160;&#160;&#160;&#160;&#160;&#160;&#160;&#160;&#160;</text><text fill="#000000" font-family="Arial" font-size="14" lengthAdjust="spacing" textLength="29.5996" x="816.5825" y="151.0732">Tiny</text><text fill="#000000" filter="url(#bcbt54vly7fsx6)" font-family="Arial" font-size="14" lengthAdjust="spacing" textLength="160.207" x="944.7427" y="151.0732">&#160;&#160;&#160;&#160;&#160;&#160;&#160;&#160;&#160;&#160;&#160;&#160;&#160;&#160;&#160;&#160;&#160;&#160;&#160;&#160;&#160;&#160;&#160;&#160;&#160;&#160;&#160;&#160;&#160;&#160;&#160;&#160;&#160;&#160;&#160;&#160;</text><text fill="#000000" font-family="Arial" font-size="14" font-weight="bold" lengthAdjust="spacing" textLength="47.1953" x="851.1245" y="167.3701">Arrow</text><text fill="#000000" font-family="Arial" font-size="14" font-weight="bold" lengthAdjust="spacing" textLength="90.5488" x="983.7349" y="167.3701">Description</text><text fill="#000000" font-family="Arial" font-size="14" lengthAdjust="spacing" textLength="99.9004" x="816.5825" y="183.667">Solid Line (-&gt;)</text><text fill="#000000" font-family="Arial" font-size="14" lengthAdjust="spacing" textLength="148.5928" x="949.1929" y="183.667">Don't response value</text><text fill="#000000" font-family="Arial" font-size="14" lengthAdjust="spacing" textLength="123.71" x="816.5825" y="199.9639">Dotted Line (---&gt;)</text><text fill="#000000" font-family="Arial" font-size="14" lengthAdjust="spacing" textLength="110.5576" x="949.1929" y="199.9639">Response value</text><line style="stroke:#000000;stroke-width:1.0;" x1="812.1323" x2="1106.686" y1="24" y2="24"/><line style="stroke:#000000;stroke-width:1.0;" x1="812.1323" x2="1106.686" y1="40.2969" y2="40.2969"/><line style="stroke:#000000;stroke-width:1.0;" x1="812.1323" x2="1106.686" y1="56.5938" y2="56.5938"/><line style="stroke:#000000;stroke-width:1.0;" x1="812.1323" x2="1106.686" y1="72.8906" y2="72.8906"/><line style="stroke:#000000;stroke-width:1.0;" x1="812.1323" x2="1106.686" y1="89.1875" y2="89.1875"/><line style="stroke:#000000;stroke-width:1.0;" x1="812.1323" x2="1106.686" y1="105.4844" y2="105.4844"/><line style="stroke:#000000;stroke-width:1.0;" x1="812.1323" x2="1106.686" y1="121.7813" y2="121.7813"/><line style="stroke:#000000;stroke-width:1.0;" x1="812.1323" x2="1106.686" y1="138.0781" y2="138.0781"/><line style="stroke:#000000;stroke-width:1.0;" x1="812.1323" x2="1106.686" y1="154.375" y2="154.375"/><line style="stroke:#000000;stroke-width:1.0;" x1="812.1323" x2="1106.686" y1="170.6719" y2="170.6719"/><line style="stroke:#000000;stroke-width:1.0;" x1="812.1323" x2="1106.686" y1="186.9688" y2="186.9688"/><line style="stroke:#000000;stroke-width:1.0;" x1="812.1323" x2="1106.686" y1="203.2656" y2="203.2656"/><line style="stroke:#000000;stroke-width:1.0;" x1="812.1323" x2="812.1323" y1="24" y2="203.2656"/><line style="stroke:#000000;stroke-width:1.0;" x1="944.7427" x2="944.7427" y1="24" y2="203.2656"/><line style="stroke:#000000;stroke-width:1.0;" x1="1106.686" x2="1106.686" y1="24" y2="203.2656"/><!--SRC=[jLTTRo8t57sVNt6LVM3tOIG2eL5G6uaoq8sQRA8Cgtr1gfp1PDqCDhKDMof-VE-CFyRC0ZEjj9QY-ECUNzzpZw-7Jbmqc96Nd492LIRPMZF1ePYEEeylVz9CmrZaGYf8gTQClqRgZV4raMG52xeacrnF1TUVo8h2I3AI7rzFsJyKBdjHJbyfNu0MwsZ_2zWsoUcASgq0gZbirY_iepqyi4oA33UI8i-fnCcVNqZsDdmtwWvwlUGMMhHYdtIdD5rLy9l-TJVvjJNydkn2vzF9P71pqnez5gkru1Yfts3IdM9hlS63M6mmKnxTcqoJzku_iy3pDVfDhbfZPuplgh2du-wuBMcTaPJY6qmtF2ka5QJTB5JZK81bhaJE5d3FE8NtyUq7s4CYU4U3f0ffL1Is9DzGSxv4Q4szSMpCdmyDzn5ApmWmYZgbyXEwB10Ne_KwPnafN5z0vjD4KAgPKM5v8rx4tmUsy3xzCahYRlVommMy8tJPMrv7g7tDChOckC65Mo_-vlo1CDoVA2WwOFDt4d0rv-aAlPM8ijS8wStv7MVQWMo_4NOzv-FypQ5Cjn7Kd_Cdnk-4Wxb18t0mvyzQA8Up_KROJtC-8ygVqlOzh2Whc9zwPbCgjooZGLRZ8yrarjhwhFOQijepMVsSfEM9yF_P87ecGTDDIahxejC8G9PJccqaqpkZ0pjeYllZw3vKSdoycRZHriVSRuYvRs96ZNmakPCBTiy6qZUHbmfnC3Te2kGnRH673UGnzN5SdOfZAIbzdg6bAQRAQz2EcywJIBQbKZKSofp7slf33Hh87NXo4xbrv6BtBBc3W5m7SuD6bH2v-4OaNe-yVDbEa1kwhR_4zWLsEp_bXCFAKgdeNnlACngVJ5jP2EDRKzw6CFvA-2l5pmD87_wu-tGt0wM9fX71jsEB7MCNcMA8C5lWgdKtuIeVsfXoDYoNYe6ghCrIP0kUiKL97XWKOojnOu2qLWPkmkO9BMhy3672oy-hB1VP6oYnaHaDZb0pZ-hqnfNJ1Js9Skwh409Zk-YZy9pKZ8f5pqL0xg5LiLhH6z_wib_5L4tv7cxdBhpDH35yL3LGSN9V61pcW70_uoL-ZFFoui5lJmSUsb3jTpt7TkKw22i471xIaUx8-CxIHts6-OhJGDhswGpaw6RSesgDR6qRbg-cmjB5b-orWWKcKLWAuyg7oHf-tnSVybWycFeQ7g- -mvb8t1534Tbx7LWT0TRkllq0g1MDsIZztHQDo7qY78Yl40KM9gxmjmnGBCyxkFmnCln_oli1mdCy71LU9_xlxLy0]--></g></svg>